<svg width="100" height="100" viewBox="0 0 100 100" xmlns="http://www.w3.org/2000/svg">
  <defs>
    <linearGradient id="catGradient" x1="0%" y1="0%" x2="100%" y2="100%">
      <stop offset="0%" style="stop-color:#4BA8B5"/>
      <stop offset="100%" style="stop-color:#1B3A57"/>
    </linearGradient>
  </defs>
  
  <!-- Background rounded rectangle -->
  <rect width="100" height="100" rx="20" fill="url(#catGradient)"/>
  
  <!-- Cat silhouette -->
  <g fill="white">
    <!-- Body (sitting position) -->
    <ellipse cx="50" cy="70" rx="22" ry="25"/>
    <!-- Head -->
    <circle cx="50" cy="40" r="16"/>
    <!-- Pointed ears -->
    <polygon points="38,25 42,10 48,25"/>
    <polygon points="52,25 58,10 62,25"/>
    <!-- Inner ears -->
    <polygon points="40,22 42,15 46,22" fill="#4BA8B5"/>
    <polygon points="54,22 58,15 60,22" fill="#4BA8B5"/>
    <!-- Snout area -->
    <ellipse cx="50" cy="45" rx="3" ry="2"/>
    <!-- Whiskers -->
    <line x1="30" y1="42" x2="40" y2="40" stroke="white" stroke-width="1"/>
    <line x1="30" y1="46" x2="40" y2="46" stroke="white" stroke-width="1"/>
    <line x1="60" y1="40" x2="70" y2="42" stroke="white" stroke-width="1"/>
    <line x1="60" y1="46" x2="70" y2="46" stroke="white" stroke-width="1"/>
    <!-- Tail -->
    <path d="M 72 65 Q 80 50 75 35" stroke="white" stroke-width="6" fill="none" stroke-linecap="round"/>
  </g>
</svg>