<svg width="100" height="100" viewBox="0 0 100 100" xmlns="http://www.w3.org/2000/svg">
  <defs>
    <linearGradient id="otherGradient" x1="0%" y1="0%" x2="100%" y2="100%">
      <stop offset="0%" style="stop-color:#4BA8B5"/>
      <stop offset="100%" style="stop-color:#5DD4DC"/>
    </linearGradient>
  </defs>
  
  <!-- Background rounded rectangle -->
  <rect width="100" height="100" rx="20" fill="url(#otherGradient)"/>
  
  <!-- Generic pet silhouette (stylized) -->
  <g fill="white">
    <!-- Heart shape for "love pets" -->
    <path d="M 50 70 C 35 55, 20 45, 35 30 C 45 25, 55 25, 50 40 C 45 25, 55 25, 65 30 C 80 45, 65 55, 50 70 Z"/>
    <!-- Small paw prints around -->
    <g fill="white" opacity="0.7">
      <!-- Paw 1 -->
      <circle cx="30" cy="25" r="2"/>
      <ellipse cx="28" cy="30" rx="1.5" ry="2"/>
      <ellipse cx="32" cy="30" rx="1.5" ry="2"/>
      <ellipse cx="26" cy="33" rx="1" ry="1.5"/>
      <ellipse cx="34" cy="33" rx="1" ry="1.5"/>
      
      <!-- Paw 2 -->
      <circle cx="70" cy="25" r="2"/>
      <ellipse cx="68" cy="30" rx="1.5" ry="2"/>
      <ellipse cx="72" cy="30" rx="1.5" ry="2"/>
      <ellipse cx="66" cy="33" rx="1" ry="1.5"/>
      <ellipse cx="74" cy="33" rx="1" ry="1.5"/>
      
      <!-- Paw 3 -->
      <circle cx="25" cy="75" r="2"/>
      <ellipse cx="23" cy="80" rx="1.5" ry="2"/>
      <ellipse cx="27" cy="80" rx="1.5" ry="2"/>
      <ellipse cx="21" cy="83" rx="1" ry="1.5"/>
      <ellipse cx="29" cy="83" rx="1" ry="1.5"/>
      
      <!-- Paw 4 -->
      <circle cx="75" cy="75" r="2"/>
      <ellipse cx="73" cy="80" rx="1.5" ry="2"/>
      <ellipse cx="77" cy="80" rx="1.5" ry="2"/>
      <ellipse cx="71" cy="83" rx="1" ry="1.5"/>
      <ellipse cx="79" cy="83" rx="1" ry="1.5"/>
    </g>
  </g>
</svg>