<svg width="200" height="150" viewBox="0 0 200 150" fill="none" xmlns="http://www.w3.org/2000/svg">
  <!-- Left Diamond - Dog (Light Blue) -->
  <g transform="translate(20, 40)">
    <path d="M35 0 L70 35 L35 70 L0 35 Z" fill="#7FB3D3" />
    <!-- Dog Face -->
    <g transform="translate(35, 35)">
      <!-- Left Ear -->
      <ellipse cx="-10" cy="-15" rx="6" ry="10" fill="white" />
      <!-- Right Ear -->
      <ellipse cx="10" cy="-15" rx="6" ry="10" fill="white" />
      <!-- Head -->
      <circle cx="0" cy="-6" r="13" fill="white" />
      <!-- Eyes -->
      <circle cx="-5" cy="-10" r="2" fill="#4A90E2" />
      <circle cx="5" cy="-10" r="2" fill="#4A90E2" />
      <!-- Nose -->
      <ellipse cx="0" cy="-3" rx="1.5" ry="1" fill="#4A90E2" />
      <!-- Mouth -->
      <path d="M0 -1 Q-3 2 -6 0" stroke="#4A90E2" stroke-width="1.2" fill="none" stroke-linecap="round" />
      <path d="M0 -1 Q3 2 6 0" stroke="#4A90E2" stroke-width="1.2" fill="none" stroke-linecap="round" />
    </g>
  </g>

  <!-- Top Right Diamond - Cat (Medium Blue) -->
  <g transform="translate(105, 15)">
    <path d="M35 0 L70 35 L35 70 L0 35 Z" fill="#5B9BD5" />
    <!-- Cat Face -->
    <g transform="translate(35, 35)">
      <!-- Head -->
      <circle cx="0" cy="-6" r="13" fill="white" />
      <!-- Left Ear -->
      <path d="M-10 -16 L-5 -20 L-2 -15 Z" fill="white" />
      <!-- Right Ear -->
      <path d="M10 -16 L5 -20 L2 -15 Z" fill="white" />
      <!-- Eyes -->
      <ellipse cx="-5" cy="-10" rx="1.2" ry="2.5" fill="#5B9BD5" />
      <ellipse cx="5" cy="-10" rx="1.2" ry="2.5" fill="#5B9BD5" />
      <!-- Nose -->
      <path d="M0 -5 L-1.5 -3 L1.5 -3 Z" fill="#5B9BD5" />
      <!-- Mouth -->
      <path d="M0 -3 Q-2.5 -1 -5 -2" stroke="#5B9BD5" stroke-width="1" fill="none" stroke-linecap="round" />
      <path d="M0 -3 Q2.5 -1 5 -2" stroke="#5B9BD5" stroke-width="1" fill="none" stroke-linecap="round" />
      <!-- Whiskers -->
      <line x1="-15" y1="-7" x2="-18" y2="-8" stroke="white" stroke-width="1" stroke-linecap="round" />
      <line x1="-15" y1="-5" x2="-18" y2="-5" stroke="white" stroke-width="1" stroke-linecap="round" />
      <line x1="-15" y1="-3" x2="-18" y2="-2" stroke="white" stroke-width="1" stroke-linecap="round" />
      <line x1="15" y1="-7" x2="18" y2="-8" stroke="white" stroke-width="1" stroke-linecap="round" />
      <line x1="15" y1="-5" x2="18" y2="-5" stroke="white" stroke-width="1" stroke-linecap="round" />
      <line x1="15" y1="-3" x2="18" y2="-2" stroke="white" stroke-width="1" stroke-linecap="round" />
    </g>
  </g>

  <!-- Bottom Right Diamond - Third Pet (Dark Blue) -->
  <g transform="translate(120, 65)">
    <path d="M35 0 L70 35 L35 70 L0 35 Z" fill="#2C5F8B" />
    <!-- Pet Face (appears to be another dog/cat hybrid) -->
    <g transform="translate(35, 35)">
      <!-- Head -->
      <circle cx="0" cy="-6" r="13" fill="white" />
      <!-- Ears (pointed like the original) -->
      <ellipse cx="-8" cy="-14" rx="4" ry="8" fill="white" />
      <ellipse cx="8" cy="-14" rx="4" ry="8" fill="white" />
      <!-- Eyes -->
      <circle cx="-5" cy="-10" r="2" fill="#2C5F8B" />
      <circle cx="5" cy="-10" r="2" fill="#2C5F8B" />
      <!-- Nose -->
      <circle cx="0" cy="-3" r="1.5" fill="#2C5F8B" />
      <!-- Mouth -->
      <path d="M0 -1 Q-3 1 -5 -1" stroke="#2C5F8B" stroke-width="1.2" fill="none" stroke-linecap="round" />
      <path d="M0 -1 Q3 1 5 -1" stroke="#2C5F8B" stroke-width="1.2" fill="none" stroke-linecap="round" />
    </g>
  </g>
</svg>