<svg width="100" height="100" viewBox="0 0 100 100" xmlns="http://www.w3.org/2000/svg">
  <defs>
    <linearGradient id="parrotGradient" x1="0%" y1="0%" x2="100%" y2="100%">
      <stop offset="0%" style="stop-color:#1B3A57"/>
      <stop offset="100%" style="stop-color:#0F1F35"/>
    </linearGradient>
  </defs>
  
  <!-- Background rounded rectangle -->
  <rect width="100" height="100" rx="20" fill="url(#parrotGradient)"/>
  
  <!-- Parrot silhouette -->
  <g fill="white">
    <!-- Body -->
    <ellipse cx="50" cy="65" rx="18" ry="25"/>
    <!-- Head -->
    <circle cx="50" cy="38" r="15"/>
    <!-- Crest feathers -->
    <polygon points="42,20 45,8 48,20"/>
    <polygon points="48,20 50,5 52,20"/>
    <polygon points="52,20 55,8 58,20"/>
    <!-- Curved beak -->
    <path d="M 62 38 Q 70 42 65 48 Q 62 45 62 38" fill="white"/>
    <!-- Wing detail -->
    <ellipse cx="45" cy="65" rx="8" ry="20"/>
    <ellipse cx="40" cy="65" rx="4" ry="18" fill="#5DD4DC" opacity="0.3"/>
    <!-- Tail feathers -->
    <ellipse cx="50" cy="85" rx="12" ry="8"/>
    <ellipse cx="52" cy="90" rx="8" ry="5" fill="#5DD4DC" opacity="0.3"/>
    <!-- Eye -->
    <circle cx="52" cy="35" r="2" fill="#1B3A57"/>
  </g>
</svg>