<svg width="100" height="100" viewBox="0 0 100 100" xmlns="http://www.w3.org/2000/svg">
  <defs>
    <linearGradient id="dogGradient" x1="0%" y1="0%" x2="100%" y2="100%">
      <stop offset="0%" style="stop-color:#5DD4DC"/>
      <stop offset="100%" style="stop-color:#4BA8B5"/>
    </linearGradient>
  </defs>
  
  <!-- Background rounded rectangle -->
  <rect width="100" height="100" rx="20" fill="url(#dogGradient)"/>
  
  <!-- Dog silhouette -->
  <g fill="white">
    <!-- Body -->
    <ellipse cx="50" cy="65" rx="25" ry="20"/>
    <!-- Head -->
    <circle cx="50" cy="40" r="18"/>
    <!-- Snout -->
    <ellipse cx="62" cy="42" rx="8" ry="5"/>
    <!-- Ears -->
    <ellipse cx="40" cy="28" rx="6" ry="12" transform="rotate(-30 40 28)"/>
    <ellipse cx="60" cy="28" rx="6" ry="12" transform="rotate(30 60 28)"/>
    <!-- Tail -->
    <ellipse cx="72" cy="55" rx="4" ry="15" transform="rotate(45 72 55)"/>
    <!-- Legs -->
    <rect x="35" y="80" width="4" height="15" rx="2"/>
    <rect x="45" y="80" width="4" height="15" rx="2"/>
    <rect x="55" y="80" width="4" height="15" rx="2"/>
    <rect x="65" y="80" width="4" height="15" rx="2"/>
  </g>
</svg>